<mxfile host="app.diagrams.net" modified="2023-07-06T03:22:06.231Z" agent="Mozilla/5.0 (iPad; CPU OS 16_1 like Mac OS X) AppleWebKit/605.1.15 (KHTML, like Gecko) EdgiOS/114.0.1823.61 Version/16.0 Mobile/15E148 Safari/604.1" version="21.5.1" etag="pl-5fgUkX8YRTXtNiQkf" type="github">
  <diagram name="第 1 页" id="auwQ5FPKYSg6R1vcUo5-">
    <mxGraphModel>
      <root>
        <mxCell id="0" />
        <mxCell id="1" parent="0" />
      </root>
    </mxGraphModel>
  </diagram>
</mxfile>
